<?xml version="1.0" encoding="utf-8"?>
<!-- Generator: Adobe Illustrator 25.3.1, SVG Export Plug-In . SVG Version: 6.00 Build 0)  -->
<svg version="1.1" id="Layer_1" xmlns="http://www.w3.org/2000/svg" xmlns:xlink="http://www.w3.org/1999/xlink" x="0px" y="0px"
	 viewBox="0 0 1024 1024" style="enable-background:new 0 0 1024 1024;" xml:space="preserve">
<style type="text/css">
	.st0{fill:url(#SVGID_1_);}
</style>
<g>
	<path d="M903.3,1016.2H120.7c-62.3,0-112.9-50.5-112.9-112.9V120.7C7.8,58.4,58.4,7.8,120.7,7.8h782.5
		c62.3,0,112.9,50.5,112.9,112.9v782.5C1016.2,965.6,965.6,1016.2,903.3,1016.2z"/>
</g>
<g id="Layer_2_1_">
	<g id="Layer_1-2">
		
			<linearGradient id="SVGID_1_" gradientUnits="userSpaceOnUse" x1="48.5774" y1="514.0968" x2="975.7895" y2="514.0968" gradientTransform="matrix(1 0 0 -1 0 1026)">
			<stop  offset="1.000000e-02" style="stop-color:#E0D5BF"/>
			<stop  offset="0.41" style="stop-color:#E1DDBF"/>
			<stop  offset="1" style="stop-color:#E2E0BF"/>
			<stop  offset="1" style="stop-color:#D9D7B7"/>
			<stop  offset="1" style="stop-color:#A7A58D"/>
			<stop  offset="1" style="stop-color:#7A7967"/>
			<stop  offset="1" style="stop-color:#545447"/>
			<stop  offset="1" style="stop-color:#36352D"/>
			<stop  offset="1" style="stop-color:#1E1E19"/>
			<stop  offset="1" style="stop-color:#0D0D0B"/>
			<stop  offset="1" style="stop-color:#030303"/>
			<stop  offset="1" style="stop-color:#000000"/>
		</linearGradient>
		<path class="st0" d="M462.1,698.7c-6.9,0.4-13.7-2.4-18.3-7.6c-14.3-65.8-32.2-98.7-53.7-98.7c-7,1.9-13.6,5.1-19.3,9.7
			c-6.6,5-14.3,8.3-22.4,9.7c-8.6,0-13-5.1-13-15c1.5-16.9,7.8-32.9,18.3-46.3c-2.3-5.8-13-12.5-32.3-20.6
			c-18.6,7.8-38.1,13.1-58,16c-2.1,0-5.8-5.6-10.7-16.7c-3.7-10.3-13.7-17-24.7-16.7c-38.4,1-75.4,14.5-105.3,38.7
			c-29.2,20.6-44,39.5-44,53.7c0.7,7.1,2.3,14,4.9,20.6c2.6,7.1,4.2,14.5,4.7,22c0.5,12.3-2.3,24.5-8,35.4c-5.3,9.5-10.9,14-16.7,14
			c-4.5,0-8.5-2.5-10.7-6.4c-3.5-6-5-12.9-4.3-19.7v-20.6c1.2-35.3,15.3-69,39.7-94.6c31.3-34.6,70.8-60.8,115-76.1
			c0-2.9-7.6-8-22.6-15c-21.7-10-41.4-23.9-58-41.1c-31.5-34-47.2-61-47.1-81c0-8,5.6-11.9,17.1-11.9s18.7,7.8,23.7,23.7
			c7.2,20.6,11.1,31.5,11.7,32.3c28.8,28.2,64.1,48.8,102.8,60.1c59.2,17.9,90.9,28,94.4,30c34.8,16.8,65.3,41.5,89.1,72
			c17.3,24.1,31.1,50.5,41.1,78.4c6.8,15.1,11.8,31,15,47.3v20.6C468.5,697.2,465.4,698.8,462.1,698.7z M473.8,632.1
			c-44.1-163.6-66.3-263.4-66.4-299.5c0-4.3,3.1-6.6,9.7-6.6h3.1c11.5,0,22,25.1,31.3,75.3c7.8,41.1,17.5,117,29,227.7L473.8,632.1z
			 M510.5,697.7l-4.3-7.6c-2.7-9.9-4.8-19.9-6.4-30l-3.3-60.1l-23.7-271.7c23-2.3,44.4-3.3,64.4-3.3v5.3c0,4.3,0,12.3-1.4,24.3
			c-1.1,9.8-1.6,19.6-1.6,29.4v17.3c0,14.2-1.4,39.9-4.3,76.7s-4.3,66.6-4.3,89.7s0,47.3,1,66.6s-5.3,34.3-9.7,53.7
			C514.9,691.4,512.7,694.6,510.5,697.7z M544.8,611.7l-6.4-10.7v-4.3c-0.7-1.7-1.1-3.5-1.2-5.3c0.2-4.9,0.7-9.8,1.6-14.6
			c0.9-3.9,1.4-7.8,1.6-11.7c0-1.8,9.7-64.2,29-187.4c3.7-23,5.3-35.2,5.3-36.6c2.9-9.3,7.8-14,15-14s15,4.7,15,14
			c-2.4,21.4-6.4,42.5-11.7,63.3c-10.7,47.3-18.9,89.5-24.7,126.7C560.6,581.3,552.6,608.2,544.8,611.7z M554.5,696.5
			c-3.3-8.2-5.1-16.9-5.3-25.7c1.9-19.3,7-38.1,15-55.7c9.9-28.4,25.2-54.7,45-77.3c30.7-27.2,66.5-48.2,105.3-61.7
			c21.6-8.3,43.9-14.6,66.6-18.7c15.5-2.2,30.9-5.1,46.1-8.8c26.4-9,50.8-23,72-41.1c18.8-17.8,30.8-41.6,33.9-67.3
			c4.1-6.9,11.3-11.3,19.3-11.7c9.9,0,15,6.4,15,19.3c-2.4,11.3-8,21.7-16,30c-17.7,24.3-29.4,41-35.2,50.2
			c-9.3,15.8-39.9,36.6-92.3,61.7c97.5,24.3,148,75.4,151.6,153.4c1.2,11-1.1,22.1-6.6,31.7c-4.9,7.8-10.3,11.7-16,11.7
			s-9.7-4.3-11.7-12.8s1.2-12.5,2.1-20.6s0-12.8,0-15c-1.1-29.3-13-57.2-33.3-78.4c-25.1-29.3-61.6-46.3-100.2-46.7
			c-3.1-2.1-6.8-3.1-10.5-2.9c-6.8-0.9-12.9,3.9-13.8,10.7c-0.1,1.1-0.1,2.2,0,3.3c0.3,3.5,1.2,6.9,2.7,10.1
			c1.5,3.6,2.4,7.4,2.7,11.3c0,12.1-4.7,18.3-14,18.3c-9.9-3.3-19.1-8.7-26.9-15.6c-11.7-9.4-26.1-14.8-41.1-15.4
			c-17.2-1.6-33.8,7-42.4,22c-4.9,11.6-14.5,20.7-26.3,25.1c-19.3,3.2-35.9,15.1-45.2,32.3c-11.8,26.9-21.4,54.6-28.6,83.1
			L554.5,696.5z"/>
	</g>
</g>
</svg>
