<svg xmlns="http://www.w3.org/2000/svg" xmlns:xlink="http://www.w3.org/1999/xlink" viewBox="0 0 45.06 18.17"><defs><style>.cls-1{fill:url(#linear-gradient);}</style><linearGradient id="linear-gradient" y1="9.08" x2="45.06" y2="9.08" gradientUnits="userSpaceOnUse"><stop offset="0.01" stop-color="#e0d5bf"/><stop offset="0.41" stop-color="#e1ddbf"/><stop offset="1" stop-color="#e2e0bf"/><stop offset="1" stop-color="#d9d7b7"/><stop offset="1" stop-color="#a7a58d"/><stop offset="1" stop-color="#7a7967"/><stop offset="1" stop-color="#545447"/><stop offset="1" stop-color="#36352d"/><stop offset="1" stop-color="#1e1e19"/><stop offset="1" stop-color="#0d0d0b"/><stop offset="1" stop-color="#030303"/><stop offset="1"/></linearGradient></defs><g id="Layer_2" data-name="Layer 2"><g id="Layer_1-2" data-name="Layer 1"><path class="cls-1" d="M20.1,18.17a1.1,1.1,0,0,1-.89-.37Q18.17,13,16.6,13a2.57,2.57,0,0,0-.94.47,2.44,2.44,0,0,1-1.09.47c-.42,0-.63-.25-.63-.73a4.25,4.25,0,0,1,.89-2.25c-.11-.28-.63-.61-1.57-1a11.7,11.7,0,0,1-2.82.78c-.1,0-.28-.27-.52-.81a1.23,1.23,0,0,0-1.2-.81A8.49,8.49,0,0,0,3.6,11c-1.42,1-2.14,1.92-2.14,2.61a3.68,3.68,0,0,0,.24,1,4,4,0,0,1,.23,1.07,3.39,3.39,0,0,1-.39,1.72c-.26.46-.53.68-.81.68a.6.6,0,0,1-.52-.31A1.6,1.6,0,0,1,0,16.81v-1a7,7,0,0,1,1.93-4.6,13.47,13.47,0,0,1,5.59-3.7c0-.14-.37-.39-1.1-.73a9.28,9.28,0,0,1-2.82-2Q1.3,2.3,1.31.84c0-.39.27-.58.83-.58s.91.38,1.15,1.15c.35,1,.54,1.53.57,1.57a11.94,11.94,0,0,0,5,2.92c2.88.87,4.42,1.36,4.59,1.46a12.25,12.25,0,0,1,4.33,3.5,15.64,15.64,0,0,1,2,3.81,10.56,10.56,0,0,1,.73,2.3v1A.51.51,0,0,1,20.1,18.17Zm.57-3.24Q17.45,3,17.44.37c0-.21.15-.32.47-.32h.15c.56,0,1.07,1.22,1.52,3.66q.57,3,1.41,11.07Zm1.78,3.19-.21-.37a12.54,12.54,0,0,1-.31-1.46l-.16-2.92L20.62.16C21.74.05,22.78,0,23.75,0V.26c0,.21,0,.6-.07,1.18a13.74,13.74,0,0,0-.08,1.43v.84c0,.69-.07,1.94-.21,3.73s-.21,3.24-.21,4.36,0,2.3.05,3.24-.26,1.67-.47,2.61A5.41,5.41,0,0,1,22.45,18.12Zm1.67-4.18-.31-.52v-.21a.78.78,0,0,1-.06-.26,4.62,4.62,0,0,1,.08-.71,3.25,3.25,0,0,0,.08-.57q0-.13,1.41-9.11c.18-1.12.26-1.71.26-1.78.14-.45.38-.68.73-.68s.73.23.73.68a22.73,22.73,0,0,1-.57,3.08q-.78,3.45-1.2,6.16C24.89,12.46,24.5,13.77,24.12,13.94Zm.47,4.12a3.59,3.59,0,0,1-.26-1.25,8.6,8.6,0,0,1,.73-2.71,11.34,11.34,0,0,1,2.19-3.76,15.29,15.29,0,0,1,5.12-3,17.7,17.7,0,0,1,3.24-.91A22.28,22.28,0,0,0,37.85,6,10.74,10.74,0,0,0,41.35,4,5.41,5.41,0,0,0,43,.73a1.17,1.17,0,0,1,.94-.57c.48,0,.73.31.73.94a3,3,0,0,1-.78,1.46Q42.6,4.33,42.18,5c-.45.77-1.94,1.78-4.49,3q7.11,1.77,7.37,7.46A2.53,2.53,0,0,1,44.74,17q-.36.57-.78.57c-.28,0-.47-.21-.57-.62s.06-.61.1-1,0-.62,0-.73a5.82,5.82,0,0,0-1.62-3.81A6.5,6.5,0,0,0,37,9.14.84.84,0,0,0,36.49,9a.6.6,0,0,0-.67.68,1.47,1.47,0,0,0,.13.49,1.84,1.84,0,0,1,.13.55c0,.59-.23.89-.68.89a3.77,3.77,0,0,1-1.31-.76,3.43,3.43,0,0,0-2-.75,2.15,2.15,0,0,0-2.06,1.07,2.23,2.23,0,0,1-1.28,1.22,3.08,3.08,0,0,0-2.2,1.57A25.77,25.77,0,0,0,25.16,18Z"/></g></g></svg>